<svg height="512" viewBox="0 0 136.09448 136" width="512" xmlns="http://www.w3.org/2000/svg"><path d="m161.94727 7.5839844c-3.68701 12.0435506-7.56253 24.0253746-11.59766 35.9511716-86.768124 38.723355-142.6482936 124.854224-142.6484381 219.871094-.0004242 23.92623 3.5654471 47.71889 10.5800781 70.59375-2.263346 4.06395-4.532311 8.12219-6.816406 12.17188l-3.7636721 7.52539 5.8007811 2.98828c3.911742 1.8161 8.802251 3.17592 14.960938 4.53125 5.707032 12.83738 12.526672 25.15063 20.380859 36.79882 83.51359 7.13269 177.10548 10.61609 257.82031-1.11132 77.34112-11.23722 142.27617-36.60023 177.44538-83.99544l-.004.003c6.75343-9.10319 12.05257-18.33123 16.42969-26.93359l3.76367-7.52344-7.52539-7.52344c-2.37165-2.49757-4.88657-4.90321-7.52344-7.23047v-.29492c-.00021-132.97515-107.79801-240.772945-240.77341-240.773188-22.51914-.000146-44.92696 3.158895-66.56836 9.384766-9.49205-13.940273-16.91341-23.5248621-19.96093-24.4335936zm311.74609 340.9628956c.0276-.0244.0564-.0479.084-.0723 10.59857-32.90725 12.99098-35.53193-.084.0723zm-225.2168 155.63476c100.13097-.00072 189.80987-61.97281 225.2168-155.63476-40.47587 35.72434-99.43984 54.95485-164.69141 64.43554-78.29117 11.3751-166.87541 8.76895-247.279465 2.39673 45.693815 57.00886 113.693285 88.80193 186.754075 88.80249zm-79.0039-462.738281c1.60547 2.824358 3.19706 5.571798 4.77734 8.253907 3.16056 5.364217 6.27421 10.465947 9.35938 15.388672 3.08512 4.92272 6.14191 9.66712 9.18554 14.318359 4.56544 6.976859 9.10273 13.743732 13.66992 20.587891 3.0447 4.562762 6.10166 9.158712 9.18946 13.875002l.002.002c2.48752 3.79945 5.00176 7.71031 7.53711 11.70898.61133.96418 1.21728 1.90189 1.83203 2.88086 3.16514 5.04028 6.37638 10.28446 9.65234 15.81836 3.27562 5.53338 6.61484 11.35581 10.03516 17.55274 2.73019 31.59446 13.48115 194.72071 14.64063 209.79297-8.11694-.66334-50.96951-4.10936-105.18555-9.74219-29.55654-3.07085-59.999845-6.55634-84.720704-10.08789-.01475-.002-.02822-.004-.04297-.006l-39.128906-9.37695c11.081665-19.58004 23.793073-41.9425 37.009765-66.03125 18.173514-33.12282 37.301405-69.50841 54.457035-106.41797 1.55957-3.35535 3.10216-6.71426 4.62695-10.07617 4.57435-10.08573 8.98199-20.19106 13.16406-30.26172 2.78807-6.71378 5.4752-13.41227 8.04492-20.07813 6.42434-16.664654 12.11198-33.128173 16.78711-49.132811.93506-3.200914 1.82975-6.382779 2.68165-9.544921.85182-3.162164 1.66146-6.304551 2.42578-9.423829zm94.05078 127.910161c-.00004 0 103.2092 81.22656 146.72265 180.58203-52.94133 26.10805-101.75849 22.75322-131.67382 22.57226 21.24543-54.55376 21.21217-128.45637-15.04883-203.15429zm71.48047 45.14648c18.71663 5.14342 39.9887 11.64718 60.19336 18.81055 36.64262 12.99133 70.68517 30.85189 90.29101 48.90625-11.21009 20.67074-30.7048 45.37654-60.19336 60.19336 3.15941-30.92865-8.08915-60.68177-30.09765-82.76563-16.25066-16.30626-37.69116-30.06599-60.19336-45.14453z" fill="#4c5263" transform="matrix(.26580953 0 0 .26580953 0 -.04724)"/></svg>